HIERARCHY
ROOT Hips
{
	OFFSET -0.179506 -22.333345 2.821913
	CHANNELS 6 Xposition Yposition Zposition Zrotation Yrotation Xrotation 
	JOINT LeftUpLeg
	{
		OFFSET 6.951974 -9.140623 -0.681533
		CHANNELS 3 Zrotation Yrotation Xrotation
		JOINT LeftLeg
		{
			OFFSET 3.427654 -37.519855 -0.449580
			CHANNELS 3 Zrotation Yrotation Xrotation
			JOINT LeftFoot
			{
				OFFSET -1.359570 -39.796059 -4.369333
				CHANNELS 3 Zrotation Yrotation Xrotation
				JOINT LeftToe
				{
					OFFSET 2.635814 -5.579078 11.928840
					CHANNELS 3 Zrotation Yrotation Xrotation
					End Site
					{
						OFFSET 0.000000 0.000000 0.000000
					}
				}
			}
		}
	}
	JOINT RightUpLeg
	{
		OFFSET -6.767048 -9.052170 -0.431982
		CHANNELS 3 Zrotation Yrotation Xrotation
		JOINT RightLeg
		{
			OFFSET -3.829005 -38.256897 -0.885003
			CHANNELS 3 Zrotation Yrotation Xrotation
			JOINT RightFoot
			{
				OFFSET 1.577377 -39.841461 -4.231180
				CHANNELS 3 Zrotation Yrotation Xrotation
				JOINT RightToe
				{
					OFFSET -2.537174 -4.814398 12.334795
					CHANNELS 3 Zrotation Yrotation Xrotation
					End Site
					{
						OFFSET 0.000000 0.000000 0.000000
					}
				}
			}
		}
	}
	JOINT Spine
	{
		OFFSET -0.253288 10.896323 -2.669631
		CHANNELS 3 Zrotation Yrotation Xrotation
		JOINT Spine1
		{
			OFFSET 0.548704 13.518043 0.109247
			CHANNELS 3 Zrotation Yrotation Xrotation
			JOINT Spine2
			{
				OFFSET 0.145701 5.292222 2.542457
				CHANNELS 3 Zrotation Yrotation Xrotation
				JOINT Neck
				{
					OFFSET -0.277840 21.387037 -4.285703
					CHANNELS 3 Zrotation Yrotation Xrotation
					JOINT Head
					{
						OFFSET 0.515184 6.496960 5.134897
						CHANNELS 3 Zrotation Yrotation Xrotation
						End Site
						{
							OFFSET 0.000000 0.000000 0.000000
						}
					}
				}
				JOINT LeftShoulder
				{
					OFFSET 7.884473 12.174932 -3.408961
					CHANNELS 3 Zrotation Yrotation Xrotation
					JOINT LeftArm
					{
						OFFSET 9.097692 3.046888 -0.886815
						CHANNELS 3 Zrotation Yrotation Xrotation
						JOINT LeftForeArm
						{
							OFFSET 25.961220 -1.277207 -2.745643
							CHANNELS 3 Zrotation Yrotation Xrotation
							JOINT LeftHand
							{
								OFFSET 24.923361 0.898606 -0.117091
								CHANNELS 3 Zrotation Yrotation Xrotation
								End Site
								{
									OFFSET 0.000000 0.000000 0.000000
								}
							}
						}
					}
				}
				JOINT RightShoulder
				{
					OFFSET -8.175920 11.883285 -3.861528
					CHANNELS 3 Zrotation Yrotation Xrotation
					JOINT RightArm
					{
						OFFSET -9.601238 3.255117 -0.914307
						CHANNELS 3 Zrotation Yrotation Xrotation
						JOINT RightForeArm
						{
							OFFSET -25.374195 -1.332924 -2.140099
							CHANNELS 3 Zrotation Yrotation Xrotation
							JOINT RightHand
							{
								OFFSET -25.529810 0.777228 -0.555919
								CHANNELS 3 Zrotation Yrotation Xrotation
								End Site
								{
									OFFSET 0.000000 0.000000 0.000000
								}
							}
						}
					}
				}
			}
		}
	}
}
MOTION
Frames: 15
Frame Time: 0.033333
-49.514427 135.267059 89.400932 -150.439626 3.606726 86.985329 9.374031 1.521632 -7.553420 -3.428638 1.488543 29.309275 4.226149 12.166894 -29.354628 nan nan nan -16.601685 -12.023817 -15.202490 -0.445034 -17.486450 13.579466 5.169848 -7.697146 -4.555446 nan nan nan -3.353357 1.965241 3.485910 3.164334 -3.708587 7.024195 -0.456465 0.980116 -4.231392 -5.321475 11.544947 2.711272 -2.206105 10.284015 7.198749 -15.929950 -8.475197 2.696051 -59.031260 -29.426648 21.719925 160.434425 -59.437191 -120.006923 2.500448 -17.623749 -3.500432 19.775326 6.135397 -0.182088 42.509411 23.411065 -3.819322 -139.017998 45.744132 -113.636172 0.802301 11.928392 -2.644945 
-49.507660 135.165924 89.504601 -150.470176 3.541002 87.137838 9.223531 1.582275 -7.917053 -3.380265 1.551233 29.645565 4.211385 12.267886 -29.659799 nan nan nan -16.600417 -12.083853 -15.747171 -0.515990 -17.459630 14.090494 5.067582 -7.611482 -4.922625 nan nan nan -3.357502 1.976513 3.411726 3.129501 -3.736028 6.988383 -0.433303 0.997739 -4.530657 -5.757855 11.761879 2.459220 -2.057572 10.852732 7.169547 -16.965829 -8.713294 2.791230 -57.619278 -28.904433 21.218764 160.463971 -59.253649 -120.585729 3.354518 -17.895504 -3.501358 20.603541 6.401006 0.028608 41.456730 22.947158 -4.198545 -138.850534 45.741475 -114.168999 -0.068079 12.356885 -2.432530 
-49.511539 135.105972 89.547745 -150.431851 3.496053 87.276336 9.107582 1.658454 -8.207029 -3.351281 1.452521 29.820989 4.131691 12.313452 -29.776478 nan nan nan -16.547471 -12.147998 -16.068308 -0.635066 -17.382037 14.328897 4.952816 -7.594890 -5.135822 nan nan nan -3.429821 1.996700 3.330966 3.148094 -3.778080 6.909297 -0.399422 1.003930 -4.671655 -6.095655 11.788715 2.302869 -1.871904 11.308372 7.170781 -17.711858 -8.867081 2.916973 -56.490829 -28.552378 20.816421 160.649239 -59.140347 -120.988138 5.931017 -18.076464 -3.883399 21.223932 6.548651 0.185912 40.487321 22.811906 -4.681625 -138.623918 45.737905 -114.328163 -2.998549 12.866011 -2.054464 
-49.524620 135.065842 89.556732 -150.376474 3.480257 87.309756 9.073428 1.614774 -8.305587 -3.269862 1.553405 29.888009 4.161787 12.221359 -29.830259 nan nan nan -16.553465 -12.180092 -16.147056 -0.647478 -17.469433 14.402029 4.835643 -7.507064 -5.243708 nan nan nan -3.443901 2.042296 3.295450 3.114337 -3.818429 7.021257 -0.356437 0.972127 -4.885830 -6.270901 11.926311 2.192625 -1.814018 11.600082 7.170914 -18.198030 -8.930057 2.925978 -56.280616 -28.359802 20.669036 160.317699 -58.650318 -121.307925 3.361185 -17.695286 -3.306320 21.590398 6.673979 0.360091 39.867495 22.525567 -4.804343 -138.376125 45.778583 -114.677332 -0.019927 12.432941 -1.902935 
-49.516426 135.000854 89.562073 -150.321239 3.433762 87.230865 9.004538 1.352726 -8.254291 -3.184690 1.715668 29.895498 4.132786 12.235844 -30.042944 nan nan nan -16.631029 -12.268578 -16.068200 -0.700948 -17.665262 14.502643 5.072663 -7.395572 -5.339412 nan nan nan -4.001474 2.600991 3.212283 3.405833 -3.088358 6.826597 -0.519389 1.591657 -4.803664 -4.565387 10.278952 3.063856 -0.512926 9.737909 9.484818 -18.422499 -6.203785 1.222066 -58.906662 -31.219930 24.318324 159.218482 -62.163829 -122.314651 2.300332 -18.365735 -3.449555 22.421573 4.291952 -0.577216 39.076502 22.653993 -4.461033 -137.778716 45.845274 -115.552551 0.758553 12.501433 -1.520997 
-49.548851 135.031296 89.540855 -150.194719 3.447504 86.972622 8.981114 1.161047 -7.953435 -2.965492 1.907616 29.826871 3.900658 11.551860 -30.187596 nan nan nan -16.865668 -12.386482 -15.508340 -0.513841 -17.981864 14.467973 5.278301 -6.959232 -5.391504 nan nan nan -5.969257 3.850169 2.090019 5.263463 -2.972038 9.127079 0.050387 1.795672 -4.595753 2.593472 -13.165211 15.666517 5.078909 -12.622750 14.445341 -16.536048 -5.258174 3.328630 -65.054446 -35.150493 27.709477 154.951114 -62.883480 -121.244314 1.077448 -20.763926 -3.237138 19.013578 5.537910 -0.774198 40.966562 19.697353 -6.627696 -137.770701 43.453076 -116.281141 0.483582 14.609513 -1.670886 
-49.535828 135.025009 89.551826 -150.275256 3.434301 87.090458 8.966696 1.112079 -8.052452 -3.015445 1.911301 29.750609 3.889018 11.676728 -30.174353 nan nan nan -16.839377 -12.334550 -15.662857 -0.541728 -17.856497 14.521893 5.269517 -7.055266 -5.385836 nan nan nan -5.953826 3.826338 2.048553 5.216052 -2.881020 8.822891 -0.004674 1.882511 -4.276974 2.895232 -12.835869 14.990300 5.245337 -12.367033 14.895583 -16.202749 -5.207123 3.205064 -65.512864 -35.180410 28.018180 154.867969 -62.763676 -120.873344 1.691881 -20.371008 -4.025366 18.877558 5.345135 -0.903943 41.316218 19.837065 -6.441329 -138.079659 43.169656 -116.460220 -0.213622 14.321470 -2.172221 
-49.526775 135.044144 89.571175 -150.371333 3.402666 87.148070 8.926723 1.169490 -8.088474 -2.687698 2.393845 29.777304 3.731202 11.129158 -30.238607 nan nan nan -16.937414 -12.249894 -15.767722 -0.611368 -18.273579 14.693528 5.204333 -6.493875 -5.540670 nan nan nan -5.868944 3.746806 1.861272 5.090684 -2.804126 9.520216 -0.067784 1.801886 -4.898756 3.519435 -11.875106 15.195396 5.068177 -13.294126 14.490271 -16.094545 -4.957273 2.826497 -65.165352 -35.447851 27.971520 157.487445 -62.828755 -121.717478 -3.936031 -24.103402 -0.512641 18.571911 5.421039 -0.840820 42.079300 19.884945 -6.043571 -137.855737 42.668576 -115.448126 2.037393 15.443055 -2.488357 
-49.518127 135.046906 89.584610 -150.396254 3.391559 87.172691 8.908242 1.168726 -8.126383 -2.651944 2.442434 29.816609 3.755826 11.122388 -30.259483 nan nan nan -16.988772 -12.267421 -15.799889 -0.595679 -18.353355 14.758549 5.180521 -6.383611 -5.635401 nan nan nan -5.871435 3.749891 1.837237 5.108425 -2.789707 9.509503 -0.052028 1.780409 -4.833430 3.400497 -12.151502 15.613564 4.940367 -13.470355 14.121194 -16.038126 -4.839736 2.796578 -65.384988 -35.419826 28.043007 157.609205 -62.738798 -121.737072 -4.079106 -24.318565 -0.778653 18.352542 5.332726 -0.895574 42.377145 19.940995 -5.944972 -138.009223 42.636451 -115.331028 2.022842 15.455489 -2.643617 
-49.493576 135.013718 89.526611 -150.413621 3.314641 86.879887 8.869602 1.059580 -7.836871 -2.753085 2.396183 29.767507 4.076224 11.293083 -30.203244 nan nan nan -17.192460 -12.283481 -15.554922 -0.566798 -18.467403 14.912438 4.660886 -6.129567 -5.768025 nan nan nan -6.440836 4.447501 1.287487 5.514891 -2.563283 12.265818 0.279262 1.362008 -6.313024 4.174396 -12.490928 14.630642 4.289567 -14.011490 14.245062 -15.594226 -5.354877 2.969037 -66.632157 -36.024456 28.892717 156.655311 -62.610892 -121.277188 -4.910793 -24.329301 -0.688382 17.869433 5.068671 -1.710102 42.339812 19.707955 -5.609394 -137.586569 42.277493 -115.042183 2.289282 15.339284 -2.512947 
-49.498772 135.033905 89.557381 -150.464430 3.122607 86.859155 8.642994 0.939352 -7.696720 -2.649148 2.553022 29.564856 4.140344 11.129699 -30.055567 nan nan nan -17.362350 -12.358739 -15.551040 -0.629164 -18.528690 14.947826 4.347046 -5.938419 -5.811565 nan nan nan -7.023395 4.610237 1.676177 5.543941 -2.594871 11.607009 0.482357 1.763154 -5.640025 4.779385 -11.793442 13.796950 5.184090 -14.030479 13.259835 -14.665186 -5.095404 2.424015 -69.146772 -36.149469 30.490660 156.179248 -62.242539 -123.143011 -7.422092 -23.760559 -2.901663 18.001166 4.427106 -3.184696 42.705549 19.188260 -5.202659 -137.935149 42.251989 -116.605733 4.233099 14.627050 -1.054027 
-49.495998 135.040741 89.556633 -150.494565 3.104587 86.854124 8.610538 0.900772 -7.683231 -2.635934 2.546536 29.536946 4.122077 11.126978 -30.047173 nan nan nan -17.371325 -12.409136 -15.591646 -0.623354 -18.497934 14.994738 4.332388 -5.973261 -5.894931 nan nan nan -7.015271 4.555498 1.829386 5.496197 -2.633851 11.342842 0.452955 1.789531 -5.549354 4.859888 -11.648821 13.567667 5.197308 -14.011732 13.641673 -14.514081 -4.884291 2.490102 -69.499654 -36.196652 30.703577 156.509709 -62.277645 -123.538377 -7.129173 -23.865146 -3.237044 18.042894 4.344659 -3.090831 42.913418 19.380456 -5.065757 -137.980769 42.249180 -116.581761 4.227899 14.596504 -1.024677 
-49.496704 135.039169 89.546844 -150.528754 3.068827 86.861596 8.544897 0.873253 -7.686661 -2.589789 2.593791 29.533887 4.127452 11.085487 -30.035200 nan nan nan -17.403841 -12.375217 -15.628703 -0.669641 -18.519925 15.012217 4.336229 -5.960032 -5.935967 nan nan nan -6.927831 4.472114 1.860286 5.427177 -2.653584 11.297140 0.391871 1.776332 -5.541037 4.847628 -11.557805 13.576700 5.136272 -14.050972 13.663847 -14.516716 -4.709476 2.414501 -69.625555 -36.114064 30.802139 156.599305 -62.249290 -123.527152 -6.833489 -24.012259 -3.314101 17.962071 4.373041 -2.922450 43.106207 19.574847 -4.953959 -137.962676 42.206689 -116.353389 4.017889 14.686632 -1.049133 
-49.489819 135.042023 89.545799 -150.547411 3.046625 86.860771 8.506444 0.870793 -7.679350 -2.548136 2.640743 29.519687 4.159610 11.060819 -29.980314 nan nan nan -17.439167 -12.348354 -15.638595 -0.697143 -18.525382 15.025477 4.286799 -5.892857 -5.937992 nan nan nan -6.885641 4.428919 1.883955 5.410123 -2.649103 11.313520 0.371899 1.766896 -5.564843 4.857973 -11.550350 13.548610 5.013810 -14.088563 13.674844 -14.508965 -4.650653 2.359099 -69.619245 -36.078476 30.871477 156.575142 -62.223447 -123.399521 -6.702788 -24.109356 -3.441653 17.864874 4.380902 -2.885912 43.233181 19.657063 -4.809463 -137.927002 42.141617 -116.101478 3.848710 14.700353 -1.134156 
-49.478756 135.052704 89.556297 -150.552149 3.045468 86.845138 8.517674 0.858360 -7.644362 -2.543254 2.659119 29.483185 4.223773 11.066439 -29.931334 nan nan nan -17.487655 -12.397319 -15.605580 -0.639898 -18.549597 15.007184 4.226507 -5.805670 -5.919195 nan nan nan -6.913689 4.466020 1.975713 5.432894 -2.587913 11.261244 0.389805 1.783196 -5.609338 4.916704 -11.663614 13.458822 4.918093 -14.022118 13.761796 -14.494817 -4.701993 2.441067 -69.642766 -36.159023 30.991139 156.507366 -62.251484 -123.205388 -6.673127 -24.196844 -3.614364 17.804164 4.235456 -3.009262 43.359564 19.593480 -4.674062 -137.951852 42.097634 -116.021901 3.787456 14.745161 -1.359692 
